<svg width="939" height="79" viewBox="0 0 939 79" fill="none" xmlns="http://www.w3.org/2000/svg">
<g clip-path="url(#clip0_2_223)">
<path d="M704.228 60.3935L704.226 60.3934C690.542 59.7434 676.859 59.0078 663.178 58.2723C598.608 54.8009 534.077 51.3317 469.544 56.8708C438.292 59.6574 407.044 64.6602 375.775 69.6663C367.919 70.9241 360.061 72.1821 352.202 73.4052C313.073 79.4946 273.916 84.7167 234.75 84.7167C156.434 84.7167 78.1338 63.8365 39.0086 53.4031L38.9962 53.3998L0 43.0008V209.417H39.125H234.75H469.5H704.25H899.875H938.5V208.917M704.228 60.3935L704.25 59.894C782.5 63.35 860.75 63.35 899.875 63.35H938.5V63.85M704.228 60.3935C782.489 63.85 860.748 63.85 899.873 63.85H899.875H938.5M704.228 60.3935L938.5 63.85M938.5 208.917H939V63.85H938.5M938.5 208.917V63.85M938.5 208.917H899.875H899.645H899.415H899.183H898.951H898.718H898.483H898.248H898.013H897.776H897.538H897.299H897.06H896.82H896.579H896.337H896.094H895.85H895.605H895.36H895.113H894.866H894.618H894.369H894.119H893.869H893.617H893.365H893.111H892.857H892.602H892.347H892.09H891.833H891.574H891.315H891.055H890.795H890.533H890.271H890.007H889.743H889.478H889.213H888.946H888.679H888.411H888.142H887.872H887.601H887.33H887.057H886.784H886.51H886.236H885.96H885.684H885.407H885.129H884.851H884.571H884.291H884.01H883.728H883.446H883.162H882.878H882.593H882.307H882.021H881.734H881.446H881.157H880.867H880.577H880.286H879.994H879.701H879.408H879.114H878.819H878.523H878.227H877.93H877.632H877.333H877.034H876.733H876.432H876.131H875.828H875.525H875.221H874.917H874.612H874.305H873.999H873.691H873.383H873.074H872.764H872.454H872.143H871.831H871.518H871.205H870.891H870.576H870.261H869.945H869.628H869.31H868.992H868.673H868.354H868.033H867.712H867.391H867.068H866.745H866.421H866.097H865.772H865.446H865.119H864.792H864.464H864.136H863.807H863.477H863.146H862.815H862.483H862.151H861.817H861.483H861.149H860.814H860.478H860.141H859.804H859.466H859.128H858.789H858.449H858.109H857.768H857.426H857.084H856.741H856.397H856.053H855.708H855.363H855.017H854.67H854.323H853.975H853.626H853.277H852.927H852.576H852.225H851.874H851.521H851.169H850.815H850.461H850.106H849.751H849.395H849.039H848.681H848.324H847.965H847.607H847.247H846.887H846.526H846.165H845.803H845.441H845.078H844.714H844.35H843.986H843.62H843.254H842.888H842.521H842.154H841.785H841.417H841.048H840.678H840.307H839.937H839.565H839.193H838.82H838.447H838.074H837.7H837.325H836.95H836.574H836.197H835.821H835.443H835.065H834.687H834.308H833.928H833.548H833.168H832.786H832.405H832.023H831.64H831.257H830.873H830.489H830.104H829.719H829.333H828.947H828.561H828.173H827.786H827.397H827.009H826.62H826.23H825.84H825.449H825.058H824.666H824.274H823.881H823.488H823.095H822.701H822.306H821.911H821.516H821.12H820.724H820.327H819.929H819.532H819.133H818.735H818.336H817.936H817.536H817.135H816.734H816.333H815.931H815.529H815.126H814.723H814.319H813.915H813.511H813.106H812.7H812.295H811.888H811.482H811.075H810.667H810.259H809.851H809.442H809.033H808.623H808.214H807.803H807.392H806.981H806.569H806.157H805.745H805.332H804.919H804.505H804.091H803.677H803.262H802.847H802.431H802.015H801.599H801.182H800.765H800.347H799.93H799.511H799.093H798.674H798.254H797.835H797.414H796.994H796.573H796.152H795.73H795.308H794.886H794.464H794.041H793.617H793.193H792.769H792.345H791.92H791.495H791.07H790.644H790.218H789.792H789.365H788.938H788.51H788.083H787.654H787.226H786.797H786.368H785.939H785.509H785.079H784.649H784.218H783.787H783.356H782.925H782.493H782.06H781.628H781.195H780.762H780.329H779.895H779.461H779.027H778.592H778.158H777.722H777.287H776.851H776.415H775.979H775.543H775.106H774.669H774.231H773.794H773.356H772.918H772.479H772.041H771.602H771.162H770.723H770.283H769.843H769.403H768.963H768.522H768.081H767.64H767.198H766.756H766.314H765.872H765.43H764.987H764.544H764.101H763.658H763.214H762.77H762.326H761.882H761.437H760.993H760.548H760.103H759.657H759.212H758.766H758.32H757.874H757.427H756.981H756.534H756.087H755.639H755.192H754.744H754.297H753.849H753.4H752.952H752.503H752.055H751.606H751.157H750.707H750.258H749.808H749.358H748.908H748.458H748.008H747.557H747.107H746.656H746.205H745.753H745.302H744.851H744.399H743.947H743.495H743.043H742.591H742.138H741.686H741.233H740.78H740.327H739.874H739.421H738.968H738.514H738.061H737.607H737.153H736.699H736.245H735.79H735.336H734.882H734.427H733.972H733.517H733.062H732.607H732.152H731.697H731.241H730.786H730.33H729.875H729.419H728.963H728.507H728.051H727.595H727.138H726.682H726.226H725.769H725.312H724.856H724.399H723.942H723.485H723.028H722.571H722.114H721.657H721.2H720.742H720.285H719.827H719.37H718.912H718.455H717.997H717.539H717.081H716.624H716.166H715.708H715.25H714.792H714.334H713.876H713.418H712.959H712.501H712.043H711.585H711.126H710.668H710.21H709.751H709.293H708.835H708.376H707.918H707.459H707.001H706.542H706.084H705.625H705.167H704.708H704.25H703.792H703.333H702.875H702.416H701.958H701.499H701.041H700.582H700.124H699.665H699.207H698.748H698.29H697.831H697.373H696.914H696.456H695.997H695.539H695.08H694.622H694.163H693.705H693.246H692.788H692.329H691.871H691.412H690.954H690.495H690.037H689.578H689.12H688.661H688.203H687.744H687.286H686.827H686.369H685.91H685.452H684.993H684.535H684.076H683.618H683.159H682.701H682.242H681.784H681.325H680.867H680.408H679.95H679.491H679.033H678.574H678.116H677.657H677.199H676.74H676.282H675.823H675.365H674.906H674.448H673.989H673.531H673.072H672.614H672.155H671.697H671.238H670.78H670.321H669.863H669.404H668.946H668.487H668.029H667.57H667.112H666.653H666.195H665.736H665.278H664.819H664.361H663.902H663.444H662.985H662.527H662.068H661.61H661.151H660.693H660.234H659.776H659.317H658.859H658.4H657.942H657.483H657.025H656.566H656.108H655.649H655.191H654.732H654.274H653.815H653.357H652.898H652.44H651.981H651.523H651.064H650.606H650.147H649.689H649.23H648.772H648.313H647.855H647.396H646.938H646.479H646.021H645.562H645.104H644.646H644.187H643.729H643.27H642.812H642.353H641.895H641.436H640.978H640.519H640.061H639.602H639.144H638.685H638.227H637.768H637.31H636.851H636.393H635.934H635.476H635.017H634.559H634.1H633.642H633.183H632.725H632.266H631.808H631.349H630.891H630.432H629.974H629.515H629.057H628.598H628.14H627.681H627.223H626.764H626.306H625.847H625.389H624.93H624.472H624.013H623.555H623.096H622.638H622.179H621.721H621.262H620.804H620.345H619.887H619.428H618.97H618.511H618.053H617.594H617.136H616.677H616.219H615.76H615.302H614.843H614.385H613.926H613.468H613.009H612.551H612.092H611.634H611.175H610.717H610.258H609.8H609.341H608.883H608.424H607.966H607.507H607.049H606.59H606.132H605.673H605.215H604.756H604.298H603.839H603.381H602.922H602.464H602.005H601.547H601.088H600.63H600.171H599.713H599.254H598.796H598.337H597.879H597.42H596.962H596.503H596.045H595.586H595.128H594.669H594.211H593.752H593.294H592.835H592.377H591.918H591.46H591.001H590.543H590.084H589.626H589.167H588.709H588.25H587.792H587.333H586.875H586.417H585.958H585.5H585.041H584.583H584.124H583.666H583.207H582.749H582.29H581.832H581.373H580.915H580.456H579.998H579.539H579.081H578.622H578.164H577.705H577.247H576.788H576.33H575.871H575.413H574.954H574.496H574.037H573.579H573.12H572.662H572.203H571.745H571.286H570.828H570.369H569.911H569.452H568.994H568.535H568.077H567.618H567.16H566.701H566.243H565.784H565.326H564.867H564.409H563.95H563.492H563.033H562.575H562.116H561.658H561.199H560.741H560.282H559.824H559.365H558.907H558.448H557.99H557.531H557.073H556.614H556.156H555.697H555.239H554.78H554.322H553.863H553.405H552.946H552.488H552.029H551.571H551.112H550.654H550.195H549.737H549.278H548.82H548.361H547.903H547.444H546.986H546.527H546.069H545.61H545.152H544.693H544.235H543.776H543.318H542.859H542.401H541.942H541.484H541.025H540.567H540.108H539.65H539.191H538.733H538.274H537.816H537.357H536.899H536.44H535.982H535.523H535.065H534.606H534.148H533.689H533.231H532.772H532.314H531.855H531.397H530.938H530.48H530.021H529.563H529.104H528.646H528.188H527.729H527.271H526.812H526.354H525.895H525.437H524.978H524.52H524.061H523.603H523.144H522.686H522.227H521.769H521.31H520.852H520.393H519.935H519.476H519.018H518.559H518.101H517.642H517.184H516.725H516.267H515.808H515.35H514.891H514.433H513.974H513.516H513.057H512.599H512.14H511.682H511.223H510.765H510.306H509.848H509.389H508.931H508.472H508.014H507.555H507.097H506.638H506.18H505.721H505.263H504.804H504.346H503.887H503.429H502.97H502.512H502.053H501.595H501.136H500.678H500.219H499.761H499.302H498.844H498.385H497.927H497.468H497.01H496.551H496.093H495.634H495.176H494.717H494.259H493.8H493.342H492.883H492.425H491.966H491.508H491.049H490.591H490.132H489.674H489.215H488.757H488.298H487.84H487.381H486.923H486.464H486.006H485.547H485.089H484.63H484.172H483.713H483.255H482.796H482.338H481.879H481.421H480.962H480.504H480.045H479.587H479.128H478.67H478.211H477.753H477.294H476.836H476.377H475.919H475.46H475.002H474.543H474.085H473.626H473.168H472.709H472.251H471.792H471.334H470.875H470.417H469.958H469.5H469.042H468.583H468.125H467.666H467.208H466.749H466.291H465.832H465.374H464.915H464.457H463.998H463.54H463.081H462.623H462.164H461.706H461.247H460.789H460.33H459.872H459.413H458.955H458.496H458.038H457.579H457.121H456.662H456.204H455.745H455.287H454.828H454.37H453.911H453.453H452.994H452.536H452.077H451.619H451.16H450.702H450.243H449.785H449.326H448.868H448.409H447.951H447.492H447.034H446.575H446.117H445.658H445.2H444.741H444.283H443.824H443.366H442.907H442.449H441.99H441.532H441.073H440.615H440.156H439.698H439.239H438.781H438.322H437.864H437.405H436.947H436.488H436.03H435.571H435.113H434.654H434.196H433.737H433.279H432.82H432.362H431.903H431.445H430.986H430.528H430.069H429.611H429.152H428.694H428.235H427.777H427.318H426.86H426.401H425.943H425.484H425.026H424.567H424.109H423.65H423.192H422.733H422.275H421.816H421.358H420.899H420.441H419.982H419.524H419.065H418.607H418.148H417.69H417.231H416.773H416.314H415.856H415.397H414.939H414.48H414.022H413.563H413.105H412.646H412.188H411.729H411.271H410.812H410.354H409.896H409.437H408.979H408.52H408.062H407.603H407.145H406.686H406.228H405.769H405.311H404.852H404.394H403.935H403.477H403.018H402.56H402.101H401.643H401.184H400.726H400.267H399.809H399.35H398.892H398.433H397.975H397.516H397.058H396.599H396.141H395.682H395.224H394.765H394.307H393.848H393.39H392.931H392.473H392.014H391.556H391.097H390.639H390.18H389.722H389.263H388.805H388.346H387.888H387.429H386.971H386.512H386.054H385.595H385.137H384.678H384.22H383.761H383.303H382.844H382.386H381.927H381.469H381.01H380.552H380.093H379.635H379.176H378.718H378.259H377.801H377.342H376.884H376.425H375.967H375.508H375.05H374.591H374.133H373.674H373.216H372.757H372.299H371.84H371.382H370.923H370.465H370.006H369.548H369.089H368.631H368.172H367.714H367.255H366.797H366.338H365.88H365.421H364.963H364.504H364.046H363.587H363.129H362.67H362.212H361.753H361.295H360.836H360.378H359.919H359.461H359.002H358.544H358.085H357.627H357.168H356.71H356.251H355.793H355.334H354.876H354.417H353.959H353.5H353.042H352.583H352.125H351.667H351.208H350.75H350.291H349.833H349.374H348.916H348.457H347.999H347.54H347.082H346.623H346.165H345.706H345.248H344.789H344.331H343.872H343.414H342.955H342.497H342.038H341.58H341.121H340.663H340.204H339.746H339.287H338.829H338.37H337.912H337.453H336.995H336.536H336.078H335.619H335.161H334.702H334.244H333.785H333.327H332.868H332.41H331.951H331.493H331.034H330.576H330.117H329.659H329.2H328.742H328.283H327.825H327.366H326.908H326.449H325.991H325.532H325.074H324.615H324.157H323.698H323.24H322.781H322.323H321.864H321.406H320.947H320.489H320.03H319.572H319.113H318.655H318.196H317.738H317.279H316.821H316.362H315.904H315.445H314.987H314.528H314.07H313.611H313.153H312.694H312.236H311.777H311.319H310.86H310.402H309.943H309.485H309.026H308.568H308.109H307.651H307.192H306.734H306.275H305.817H305.358H304.9H304.441H303.983H303.524H303.066H302.607H302.149H301.69H301.232H300.773H300.315H299.856H299.398H298.939H298.481H298.022H297.564H297.105H296.647H296.188H295.73H295.271H294.813H294.354H293.896H293.438H292.979H292.521H292.062H291.604H291.145H290.687H290.228H289.77H289.311H288.853H288.394H287.936H287.477H287.019H286.56H286.102H285.643H285.185H284.726H284.268H283.809H283.351H282.892H282.434H281.975H281.517H281.058H280.6H280.141H279.683H279.224H278.766H278.307H277.849H277.39H276.932H276.473H276.015H275.556H275.098H274.639H274.181H273.722H273.264H272.805H272.347H271.888H271.43H270.971H270.513H270.054H269.596H269.137H268.679H268.22H267.762H267.303H266.845H266.386H265.928H265.469H265.011H264.552H264.094H263.635H263.177H262.718H262.26H261.801H261.343H260.884H260.426H259.967H259.509H259.05H258.592H258.133H257.675H257.216H256.758H256.299H255.841H255.382H254.924H254.465H254.007H253.548H253.09H252.631H252.173H251.714H251.256H250.797H250.339H249.88H249.422H248.963H248.505H248.046H247.588H247.129H246.671H246.212H245.754H245.295H244.837H244.378H243.92H243.461H243.003H242.544H242.086H241.627H241.169H240.71H240.252H239.793H239.335H238.876H238.418H237.959H237.501H237.042H236.584H236.125H235.667H235.208H234.75H234.292H233.833H233.375H232.916H232.458H231.999H231.541H231.082H230.624H230.165H229.707H229.249H228.79H228.332H227.874H227.415H226.957H226.499H226.041H225.582H225.124H224.666H224.208H223.75H223.292H222.834H222.376H221.919H221.461H221.003H220.545H220.088H219.63H219.173H218.715H218.258H217.8H217.343H216.886H216.429H215.972H215.515H215.058H214.601H214.144H213.688H213.231H212.774H212.318H211.862H211.405H210.949H210.493H210.037H209.581H209.125H208.67H208.214H207.759H207.303H206.848H206.393H205.938H205.483H205.028H204.573H204.118H203.664H203.21H202.755H202.301H201.847H201.393H200.939H200.486H200.032H199.579H199.126H198.673H198.22H197.767H197.314H196.861H196.409H195.957H195.505H195.053H194.601H194.149H193.698H193.247H192.795H192.344H191.893H191.443H190.992H190.542H190.092H189.642H189.192H188.742H188.293H187.843H187.394H186.945H186.497H186.048H185.6H185.151H184.703H184.256H183.808H183.361H182.913H182.466H182.019H181.573H181.126H180.68H180.234H179.788H179.343H178.897H178.452H178.007H177.563H177.118H176.674H176.23H175.786H175.342H174.899H174.456H174.013H173.57H173.128H172.686H172.244H171.802H171.36H170.919H170.478H170.037H169.597H169.157H168.717H168.277H167.838H167.398H166.959H166.521H166.082H165.644H165.206H164.769H164.331H163.894H163.457H163.021H162.585H162.149H161.713H161.278H160.842H160.408H159.973H159.539H159.105H158.671H158.238H157.805H157.372H156.939H156.507H156.075H155.644H155.213H154.782H154.351H153.921H153.491H153.061H152.632H152.203H151.774H151.346H150.917H150.49H150.062H149.635H149.208H148.782H148.356H147.93H147.505H147.08H146.655H146.231H145.807H145.383H144.959H144.536H144.114H143.692H143.27H142.848H142.427H142.006H141.586H141.165H140.746H140.326H139.907H139.489H139.07H138.653H138.235H137.818H137.401H136.985H136.569H136.153H135.738H135.323H134.909H134.495H134.081H133.668H133.255H132.843H132.431H132.019H131.608H131.197H130.787H130.377H129.967H129.558H129.149H128.741H128.333H127.925H127.518H127.112H126.705H126.3H125.894H125.489H125.085H124.681H124.277H123.874H123.471H123.069H122.667H122.266H121.865H121.464H121.064H120.664H120.265H119.867H119.468H119.071H118.673H118.276H117.88H117.484H117.089H116.694H116.299H115.905H115.512H115.119H114.726H114.334H113.942H113.551H113.16H112.77H112.381H111.991H111.603H111.214H110.827H110.439H110.053H109.667H109.281H108.896H108.511H108.127H107.743H107.36H106.977H106.595H106.214H105.832H105.452H105.072H104.692H104.313H103.935H103.557H103.179H102.803H102.426H102.05H101.675H101.3H100.926H100.553H100.179H99.8069H99.4349H99.0635H98.6926H98.3223H97.9525H97.5833H97.2146H96.8465H96.4789H96.112H95.7456H95.3797H95.0144H94.6497H94.2856H93.9221H93.5591H93.1967H92.8349H92.4737H92.113H91.7529H91.3935H91.0346H90.6763H90.3186H89.9615H89.605H89.2491H88.8938H88.5391H88.185H87.8315H87.4786H87.1263H86.7746H86.4235H86.0731H85.7233H85.374H85.0254H84.6775H84.3301H83.9834H83.6373H83.2918H82.947H82.6028H82.2592H81.9162H81.5739H81.2323H80.8912H80.5508H80.2111H79.872H79.5335H79.1957H78.8586H78.5221H78.1862H77.8511H77.5165H77.1826H76.8494H76.5169H76.185H75.8538H75.5232H75.1934H74.8642H74.5356H74.2078H73.8806H73.5541H73.2282H72.9031H72.5787H72.2549H71.9318H71.6094H71.2877H70.9667H70.6464H70.3267H70.0078H69.6896H69.3721H69.0553H68.7391H68.4237H68.109H67.795H67.4818H67.1692H66.8573H66.5462H66.2358H65.9261H65.6171H65.3089H65.0014H64.6946H64.3885H64.0832H63.7786H63.4747H63.1716H62.8692H62.5676H62.2666H61.9665H61.6671H61.3684H61.0705H60.7733H60.4769H60.1812H59.8863H59.5921H59.2987H59.0061H58.7142H58.4231H58.1328H57.8432H57.5544H57.2664H56.9791H56.6926H56.4069H56.122H55.8378H55.5544H55.2719H54.9901H54.709H54.4288H54.1494H53.8707H53.5929H53.3158H53.0396H52.7641H52.4895H52.2156H51.9426H51.6703H51.3989H51.1283H50.8585H50.5895H50.3213H50.0539H49.7874H49.5217H49.2567H48.9927H48.7294H48.467H48.2054H47.9446H47.6847H47.4256H47.1673H46.9099H46.6533H46.3975H46.1426H45.8886H45.6354H45.383H45.1315H44.8808H44.631H44.3821H44.134H43.8867H43.6404H43.3948H43.1502H42.9064H42.6635H42.4214H42.1803H41.9399H41.7005H41.462H41.2243H40.9875H40.7516H40.5165H40.2824H40.0491H39.8168H39.5853H39.3547H39.125L938.5 63.85" fill="white" stroke="white"/>
</g>
<defs>
<clipPath id="clip0_2_223">
<rect width="939" height="78.25" fill="white" transform="translate(0 0.75)"/>
</clipPath>
</defs>
</svg>
